# xmcd CD database file
#
# Track frame offsets:
#	150
#	18041
#	33334
#	49355
#	66132
#	84498
#	101052
#	117959
#	132433
#	147652
#	168290
#	182372
#	200600
#	218773
#
# Disc length: 3114 seconds
#
# Revision: 0
# Processed by: cddbd v1.5.2PL0 Copyright (c) Steve Scherf et al.
# Submitted via: CDex 1.51
#
DISCID=c50c280e
DTITLE=LAURA PAUSINI - INEDITO
DYEAR=2011
DGENRE=Italo-Pop
TTITLE0=LAURA PAUSINI - BENVENUTO
TTITLE1=LAURA PAUSINI - NON HO MAI SMESSO
TTITLE2=LAURA PAUSINI - BASTAVA
TTITLE3=LAURA PAUSINI - LE COSE CHE NON MI ASPETTO
TTITLE4=LAURA PAUSINI - TROPPO TEMPO featuring Ivano Fossati
TTITLE5=LAURA PAUSINI - MI TENGO
TTITLE6=LAURA PAUSINI - OGNUNO HA LA SUA MATITA
TTITLE7=LAURA PAUSINI - INEDITO duet with Gianna Nannini
TTITLE8=LAURA PAUSINI - COME VIVI SENZA ME
TTITLE9=LAURA PAUSINI - NEL PRIMO SGUARDO duet with Silvia Pausini
TTITLE10=LAURA PAUSINI - NESSUNO SA
TTITLE11=LAURA PAUSINI - CELESTE
TTITLE12=LAURA PAUSINI - TUTTO NON FA TE
TTITLE13=LAURA PAUSINI - TI DICO CIAO
EXTD=YEAR: 2011
EXTT0=
EXTT1=
EXTT2=
EXTT3=
EXTT4=
EXTT5=
EXTT6=
EXTT7=
EXTT8=
EXTT9=
EXTT10=
EXTT11=
EXTT12=
EXTT13=
PLAYORDER=
